Patient4_TMGait_0pt7_01_left_10_GRF.mot
version=1
nRows=39
nColumns=19
inDegrees=no
endheader
time	F1x	F1y	F1z	M1x	M1y	M1z	F2x	F2y	F2z	M2x	M2y	M2z	EC1x	EC1y	EC1z	EC2x	EC2y	EC2z
11.43	20.7316	9.9722	14.0048	-3.7344	-5.2528	2.2206	-29.248	742.0646	-62.91	285.8438	87.6794	790.0635	-0.0592	0.0182	-0.0073	-0.0462	0.0165	0.9585
11.4421	13.7587	7.6797	9.3986	-2.8573	-3.5501	2.7235	-26.2421	743.0504	-65.3138	286.7032	87.0242	793.0769	-0.0592	0.0182	-0.0073	-0.0462	0.0165	0.9585
11.4541	7.8973	5.8084	5.5583	-2.1343	-2.172	3.2116	-23.2656	743.6714	-67.142	287.3691	85.87	794.294	-0.0592	0.0182	-0.0073	-0.0462	0.0165	0.9585
11.4662	3.4345	4.4657	2.6563	-1.6056	-1.1561	3.6783	-20.4043	744.0401	-68.157	287.8464	84.1181	793.7166	-0.0592	0.0182	-0.0073	-0.0462	0.0165	0.9585
11.4783	0.35854	3.6066	0.68796	-1.2584	-0.49681	4.0653	-17.6008	744.3364	-68.3666	288.2018	81.7958	791.6495	-0.0592	0.0182	-0.0073	-0.0462	0.0165	0.9585
11.4904	-1.5556	3.1587	-0.50816	-1.0655	-0.11947	4.3798	-14.8409	744.7637	-67.9155	288.5273	79.0354	788.5517	-0.0592	0.0182	-0.0073	-0.0462	0.0165	0.9585
11.5024	-2.5785	2.9722	-1.1026	-0.97689	0.034115	4.5705	-12.0737	745.4555	-67.0165	288.9005	76.0144	784.8147	-0.0592	0.0182	-0.0073	-0.0462	0.0165	0.9585
11.5145	-3.0063	2.9002	-1.2884	-0.94093	0.037497	4.6129	-9.2655	746.569	-65.8946	289.4028	72.9194	780.8612	-0.0592	0.0182	-0.0073	-0.0462	0.0165	0.9585
11.5266	-3.0661	2.7946	-1.2122	-0.90536	-0.062574	4.4453	-6.3466	748.1877	-64.7453	290.0887	69.8909	776.9627	-0.0592	0.0182	-0.0073	-0.0462	0.0165	0.9585
11.5386	-2.9478	2.5002	-1.0058	-0.81479	-0.21939	3.9684	-3.281	750.3442	-63.7301	290.982	67.0426	773.3005	-0.0592	0.0182	-0.0073	-0.0462	0.0165	0.9585
11.5507	-2.765	1.8822	-0.76294	-0.61662	-0.39266	3.0658	-0.016087	752.9176	-62.9625	292.0429	64.4453	769.8437	-0.0592	0.0182	-0.0073	-0.0462	0.0165	0.9585
11.5628	-2.5752	0.80879	-0.5459	-0.25879	-0.54222	1.6023	3.439	755.6209	-62.5116	293.1626	62.1509	766.3942	-0.0592	0.0182	-0.0073	-0.0462	0.0165	0.9585
11.5749	-2.3864	-0.8226	-0.39969	0.29874	-0.62631	-0.52974	7.0686	758.0432	-62.3822	294.1802	60.1606	762.6124	-0.0592	0.0182	-0.0073	-0.0462	0.0165	0.9585
11.5869	-2.1565	-3.066	-0.33824	1.0718	-0.61146	-3.3871	10.8213	759.7165	-62.5344	294.9049	58.4441	758.1193	-0.0592	0.0182	-0.0073	-0.0462	0.0165	0.9585
11.599	-1.8216	-5.8544	-0.38388	2.0305	-0.44195	-6.8784	14.6496	760.1425	-62.8954	295.1331	56.9439	752.4929	-0.0592	0.0182	-0.0073	-0.0462	0.0165	0.9585
11.6111	-1.2753	-8.9001	-0.53226	3.0707	-0.07291	-10.6764	18.4837	758.8895	-63.4109	294.6772	55.6234	745.384	-0.0592	0.0182	-0.0073	-0.0462	0.0165	0.9585
11.6231	-0.42052	-11.5851	-0.79782	3.9763	0.54944	-14.0344	22.2437	755.5803	-64.053	293.3672	54.4684	736.4916	-0.0592	0.0182	-0.0073	-0.0462	0.0165	0.9585
11.6352	0.87082	-12.8785	-1.162	4.3879	1.4507	-15.7228	25.8151	749.9391	-64.8129	291.0688	53.491	725.6311	-0.0592	0.0182	-0.0073	-0.0462	0.0165	0.9585
11.6473	2.6587	-11.2165	-1.6091	3.7634	2.6317	-13.8611	29.0946	741.8502	-65.6789	287.7053	52.7013	712.7672	-0.0592	0.0182	-0.0073	-0.0462	0.0165	0.9585
11.6594	4.9398	-4.5051	-2.0737	1.3816	4.0151	-5.9405	31.9849	731.3646	-66.606	283.2719	52.0785	698.0142	-0.0592	0.0182	-0.0073	-0.0462	0.0165	0.9585
11.6714	7.5456	9.8622	-2.4649	-3.6441	5.43	11.2013	34.4429	718.7402	-67.506	277.8512	51.5496	681.6769	-0.0592	0.0182	-0.0073	-0.0462	0.0165	0.9585
11.6835	10.086	34.6811	-2.6159	-12.2605	6.539	40.9646	36.4565	704.3225	-68.2553	271.575	51.0075	664.1304	-0.0592	0.0182	-0.0073	-0.0462	0.0165	0.9585
11.6956	11.8289	72.4403	-2.298	-25.2951	6.8042	86.4296	38.0003	688.3773	-68.6811	264.5634	50.3118	645.6877	-0.0592	0.0182	-0.0073	-0.0462	0.0165	0.9585
11.7076	11.6491	124.3571	-1.1838	-43.1253	5.4328	149.1791	39.0716	670.8989	-68.5835	256.8516	49.305	626.3947	-0.0592	0.0182	-0.0073	-0.0462	0.0165	0.9585
11.7197	7.9599	189.1396	1.1245	-65.2514	1.3905	227.8139	39.642	651.4527	-67.7183	248.3325	47.8019	605.8866	-0.0592	0.0182	-0.0073	-0.0462	0.0165	0.9585
11.7318	-0.50146	262.2345	5.0714	-90.043	-6.2851	316.9941	39.7184	629.182	-65.848	238.7578	45.6201	583.3641	-0.0592	0.0182	-0.0073	-0.0462	0.0165	0.9585
11.7439	-13.136	335.9859	10.9849	-114.8333	-17.7478	407.4787	39.3196	603.1053	-62.7702	227.8362	42.5984	557.8725	-0.0592	0.0182	-0.0073	-0.0462	0.0165	0.9585
11.7559	-27.5913	401.5246	18.506	-136.6397	-31.6995	488.2623	38.5326	572.4148	-58.4564	215.3392	38.7035	528.5425	-0.0592	0.0182	-0.0073	-0.0462	0.0165	0.9585
11.768	-41.655	454.489	26.5662	-154.0175	-46.0994	553.7348	37.4424	536.8997	-53.0959	201.2315	34.077	495.0575	-0.0592	0.0182	-0.0073	-0.0462	0.0165	0.9585
11.7801	-54.3628	495.9286	33.9564	-167.3667	-59.2103	605.0362	36.1134	497.0404	-47.1136	185.6985	29.0596	457.743	-0.0592	0.0182	-0.0073	-0.0462	0.0165	0.9585
11.7921	-64.714	528.5537	39.8611	-177.6684	-69.7609	645.3161	34.5205	453.7719	-41.0305	169.0679	24.1002	417.4041	-0.0592	0.0182	-0.0073	-0.0462	0.0165	0.9585
11.8042	-72.1323	554.2467	43.8659	-185.6007	-77.0831	676.9233	32.5707	408.249	-35.2145	151.7451	19.5381	375.0778	-0.0592	0.0182	-0.0073	-0.0462	0.0165	0.9585
11.8163	-76.1094	573.2429	46.0352	-191.2778	-81.1022	700.0458	30.1143	361.8199	-29.8641	134.2035	15.5973	332.0102	-0.0592	0.0182	-0.0073	-0.0462	0.0165	0.9585
11.8284	-76.5932	585.5509	46.9307	-194.6824	-82.4477	714.6886	27.0466	315.9124	-25.0786	116.9445	12.4008	289.5305	-0.0592	0.0182	-0.0073	-0.0462	0.0165	0.9585
11.8404	-73.7525	591.5874	47.2117	-195.9351	-81.9719	721.3448	23.375	271.8937	-20.9283	100.4484	10.0096	248.9057	-0.0592	0.0182	-0.0073	-0.0462	0.0165	0.9585
11.8525	-68.4286	592.5128	47.5496	-195.4046	-80.7194	721.4563	19.2653	230.9755	-17.4796	85.1363	8.4259	211.25	-0.0592	0.0182	-0.0073	-0.0462	0.0165	0.9585
11.8646	-61.6465	589.8708	48.2757	-193.6267	-79.42	716.8732	15.0105	194.0207	-14.722	71.3166	7.5314	177.308	-0.0592	0.0182	-0.0073	-0.0462	0.0165	0.9585
11.8766	-54.4394	585.6585	49.5453	-191.3072	-78.5655	710.0189	10.932	161.4778	-12.5953	59.1501	7.1468	147.4684	-0.0592	0.0182	-0.0073	-0.0462	0.0165	0.9585
11.8887	-47.5959	582.1635	51.2313	-189.2675	-78.2548	703.4857	7.299	133.2954	-10.9718	48.6243	7.0561	121.639	-0.0592	0.0182	-0.0073	-0.0462	0.0165	0.9585
